<?xml version="1.0" encoding="UTF-8" standalone="no"?><!DOCTYPE svg PUBLIC "-//W3C//DTD SVG 1.1//EN" "http://www.w3.org/Graphics/SVG/1.1/DTD/svg11.dtd"><svg width="100%" height="100%" viewBox="0 0 2481 3508" version="1.1" xmlns="http://www.w3.org/2000/svg" xmlns:xlink="http://www.w3.org/1999/xlink" xml:space="preserve" xmlns:serif="http://www.serif.com/" style="fill-rule:evenodd;clip-rule:evenodd;stroke-linecap:round;stroke-linejoin:round;stroke-miterlimit:1;"><rect id="LARGE-INNER" serif:id="LARGE INNER" x="0" y="0" width="2480.32" height="3507.87" style="fill:none;"/><g id="LARGE-INNER1" serif:id="LARGE INNER"><path id="inner-fabric-shape" serif:id="inner fabric shape" d="M472.025,1030.8L1887.18,481.648C1887.18,481.648 2146.84,997.452 2236.83,1176.22C2256.73,1215.76 2267.1,1259.41 2267.1,1303.67L2267.1,1699.53C2267.1,1736.95 2259.69,1774.01 2245.29,1808.55C2154.05,2027.53 1807.61,2859 1807.61,2859C1807.61,2859 1367.4,2619.49 1238.63,2549.43C1215.43,2536.8 1194.1,2521 1175.27,2502.47L468.119,1806.53L675.216,1844.5L534.267,1133.34L472.025,1030.8Z" style="fill:none;stroke:black;stroke-width:5.91px;"/><g transform="matrix(1,0,0,1,-847.286,980.066)"><g transform="matrix(50,0,0,50,1901.15,2396.03)"><path d="M0.081,-0C0.058,-0 0.046,-0.012 0.046,-0.036C0.047,-0.05 0.051,-0.061 0.058,-0.07C0.065,-0.079 0.076,-0.088 0.092,-0.099C0.145,-0.134 0.186,-0.164 0.215,-0.187C0.244,-0.21 0.27,-0.239 0.293,-0.274C0.316,-0.309 0.328,-0.349 0.328,-0.393C0.328,-0.425 0.32,-0.45 0.303,-0.468C0.285,-0.485 0.262,-0.494 0.231,-0.494C0.205,-0.494 0.184,-0.488 0.167,-0.474C0.15,-0.462 0.141,-0.444 0.141,-0.421C0.141,-0.41 0.144,-0.4 0.149,-0.393C0.154,-0.385 0.16,-0.379 0.166,-0.374C0.171,-0.369 0.174,-0.367 0.174,-0.366C0.174,-0.361 0.17,-0.356 0.161,-0.349C0.152,-0.342 0.141,-0.339 0.128,-0.339C0.107,-0.339 0.091,-0.345 0.079,-0.359C0.066,-0.372 0.06,-0.388 0.06,-0.408C0.06,-0.435 0.069,-0.457 0.087,-0.476C0.105,-0.495 0.128,-0.508 0.156,-0.517C0.183,-0.526 0.211,-0.53 0.24,-0.53C0.29,-0.53 0.333,-0.518 0.37,-0.493C0.406,-0.468 0.424,-0.431 0.424,-0.38C0.424,-0.343 0.414,-0.31 0.394,-0.28C0.374,-0.25 0.35,-0.225 0.323,-0.203C0.295,-0.183 0.259,-0.158 0.214,-0.129C0.179,-0.107 0.152,-0.089 0.135,-0.076L0.135,-0.071L0.403,-0.071C0.42,-0.071 0.432,-0.069 0.44,-0.066C0.447,-0.062 0.451,-0.052 0.451,-0.036C0.451,-0.012 0.439,-0 0.416,-0L0.081,-0Z" style="fill-opacity:0.5;fill-rule:nonzero;"/></g><g transform="matrix(50,0,0,50,1925.7,2396.03)"><path d="M0.293,0.02C0.241,0.02 0.197,0.007 0.162,-0.018C0.126,-0.043 0.099,-0.077 0.082,-0.119C0.064,-0.161 0.055,-0.207 0.055,-0.256C0.055,-0.306 0.064,-0.352 0.082,-0.393C0.099,-0.434 0.126,-0.468 0.162,-0.493C0.197,-0.518 0.241,-0.53 0.293,-0.53C0.342,-0.53 0.385,-0.517 0.421,-0.492C0.457,-0.467 0.484,-0.433 0.503,-0.391C0.522,-0.349 0.531,-0.304 0.531,-0.256C0.531,-0.208 0.522,-0.163 0.503,-0.121C0.484,-0.079 0.457,-0.045 0.421,-0.019C0.385,0.007 0.342,0.02 0.293,0.02ZM0.294,-0.017C0.339,-0.017 0.373,-0.038 0.398,-0.079C0.423,-0.12 0.435,-0.179 0.435,-0.256C0.435,-0.333 0.423,-0.391 0.398,-0.432C0.373,-0.473 0.339,-0.493 0.294,-0.493C0.248,-0.493 0.213,-0.473 0.188,-0.433C0.163,-0.392 0.151,-0.333 0.151,-0.256C0.151,-0.179 0.163,-0.119 0.188,-0.079C0.213,-0.038 0.248,-0.017 0.294,-0.017Z" style="fill-opacity:0.5;fill-rule:nonzero;"/></g><g transform="matrix(50,0,0,50,1954.95,2396.03)"><path d="M0.081,-0C0.058,-0 0.046,-0.012 0.046,-0.036C0.047,-0.05 0.051,-0.061 0.058,-0.07C0.065,-0.079 0.076,-0.088 0.092,-0.099C0.145,-0.134 0.186,-0.164 0.215,-0.187C0.244,-0.21 0.27,-0.239 0.293,-0.274C0.316,-0.309 0.328,-0.349 0.328,-0.393C0.328,-0.425 0.32,-0.45 0.303,-0.468C0.285,-0.485 0.262,-0.494 0.231,-0.494C0.205,-0.494 0.184,-0.488 0.167,-0.474C0.15,-0.462 0.141,-0.444 0.141,-0.421C0.141,-0.41 0.144,-0.4 0.149,-0.393C0.154,-0.385 0.16,-0.379 0.166,-0.374C0.171,-0.369 0.174,-0.367 0.174,-0.366C0.174,-0.361 0.17,-0.356 0.161,-0.349C0.152,-0.342 0.141,-0.339 0.128,-0.339C0.107,-0.339 0.091,-0.345 0.079,-0.359C0.066,-0.372 0.06,-0.388 0.06,-0.408C0.06,-0.435 0.069,-0.457 0.087,-0.476C0.105,-0.495 0.128,-0.508 0.156,-0.517C0.183,-0.526 0.211,-0.53 0.24,-0.53C0.29,-0.53 0.333,-0.518 0.37,-0.493C0.406,-0.468 0.424,-0.431 0.424,-0.38C0.424,-0.343 0.414,-0.31 0.394,-0.28C0.374,-0.25 0.35,-0.225 0.323,-0.203C0.295,-0.183 0.259,-0.158 0.214,-0.129C0.179,-0.107 0.152,-0.089 0.135,-0.076L0.135,-0.071L0.403,-0.071C0.42,-0.071 0.432,-0.069 0.44,-0.066C0.447,-0.062 0.451,-0.052 0.451,-0.036C0.451,-0.012 0.439,-0 0.416,-0L0.081,-0Z" style="fill-opacity:0.5;fill-rule:nonzero;"/></g><g transform="matrix(50,0,0,50,1979.5,2396.03)"><path d="M0.293,0.02C0.241,0.02 0.197,0.007 0.162,-0.018C0.126,-0.043 0.099,-0.077 0.082,-0.119C0.064,-0.161 0.055,-0.207 0.055,-0.256C0.055,-0.306 0.064,-0.352 0.082,-0.393C0.099,-0.434 0.126,-0.468 0.162,-0.493C0.197,-0.518 0.241,-0.53 0.293,-0.53C0.342,-0.53 0.385,-0.517 0.421,-0.492C0.457,-0.467 0.484,-0.433 0.503,-0.391C0.522,-0.349 0.531,-0.304 0.531,-0.256C0.531,-0.208 0.522,-0.163 0.503,-0.121C0.484,-0.079 0.457,-0.045 0.421,-0.019C0.385,0.007 0.342,0.02 0.293,0.02ZM0.294,-0.017C0.339,-0.017 0.373,-0.038 0.398,-0.079C0.423,-0.12 0.435,-0.179 0.435,-0.256C0.435,-0.333 0.423,-0.391 0.398,-0.432C0.373,-0.473 0.339,-0.493 0.294,-0.493C0.248,-0.493 0.213,-0.473 0.188,-0.433C0.163,-0.392 0.151,-0.333 0.151,-0.256C0.151,-0.179 0.163,-0.119 0.188,-0.079C0.213,-0.038 0.248,-0.017 0.294,-0.017Z" style="fill-opacity:0.5;fill-rule:nonzero;"/></g><g transform="matrix(50,0,0,50,2019.57,2396.03)"><path d="M0.035,0.192C0.026,0.192 0.019,0.186 0.016,0.175C0.015,0.173 0.015,0.17 0.015,0.166C0.015,0.158 0.019,0.153 0.026,0.15C0.059,0.136 0.084,0.116 0.1,0.09C0.116,0.064 0.126,0.032 0.131,-0.007C0.136,-0.045 0.138,-0.097 0.138,-0.162L0.138,-0.514C0.137,-0.531 0.136,-0.544 0.134,-0.555C0.131,-0.565 0.125,-0.574 0.116,-0.581C0.107,-0.588 0.092,-0.591 0.073,-0.591L0.067,-0.591C0.06,-0.591 0.056,-0.592 0.053,-0.595C0.05,-0.597 0.048,-0.603 0.047,-0.612C0.047,-0.618 0.049,-0.623 0.052,-0.627C0.055,-0.632 0.06,-0.634 0.065,-0.634C0.108,-0.632 0.147,-0.631 0.184,-0.631C0.225,-0.631 0.266,-0.632 0.309,-0.634C0.315,-0.634 0.32,-0.632 0.323,-0.627C0.326,-0.623 0.327,-0.618 0.327,-0.612C0.326,-0.602 0.324,-0.596 0.321,-0.594C0.317,-0.592 0.31,-0.591 0.301,-0.591C0.282,-0.591 0.267,-0.588 0.258,-0.581C0.249,-0.574 0.243,-0.565 0.241,-0.555C0.238,-0.544 0.237,-0.531 0.236,-0.514L0.236,-0.128C0.236,-0.042 0.221,0.028 0.191,0.083C0.16,0.138 0.11,0.175 0.039,0.192L0.035,0.192Z" style="fill-opacity:0.5;fill-rule:nonzero;"/></g><g transform="matrix(50,0,0,50,2036.22,2396.03)"><path d="M0.274,0.012C0.229,0.012 0.188,0.001 0.153,-0.021C0.118,-0.042 0.09,-0.071 0.07,-0.107C0.051,-0.142 0.041,-0.18 0.041,-0.22C0.041,-0.27 0.053,-0.314 0.076,-0.35C0.099,-0.388 0.129,-0.416 0.165,-0.436C0.201,-0.455 0.237,-0.465 0.274,-0.465C0.319,-0.465 0.36,-0.454 0.395,-0.433C0.43,-0.411 0.458,-0.382 0.477,-0.346C0.497,-0.311 0.507,-0.273 0.507,-0.233C0.507,-0.183 0.495,-0.14 0.471,-0.102C0.448,-0.066 0.418,-0.037 0.382,-0.018C0.346,0.002 0.31,0.012 0.274,0.012ZM0.274,-0.025C0.319,-0.025 0.353,-0.044 0.374,-0.083C0.395,-0.122 0.405,-0.172 0.405,-0.233C0.405,-0.29 0.394,-0.337 0.373,-0.374C0.351,-0.41 0.318,-0.428 0.274,-0.428C0.228,-0.428 0.195,-0.409 0.174,-0.371C0.153,-0.333 0.143,-0.283 0.143,-0.222C0.143,-0.165 0.154,-0.117 0.175,-0.081C0.196,-0.043 0.229,-0.025 0.274,-0.025Z" style="fill-opacity:0.5;fill-rule:nonzero;"/></g><g transform="matrix(50,0,0,50,2063.22,2396.03)"><path d="M0.039,0.003C0.034,0.003 0.03,0.001 0.027,-0.003C0.024,-0.007 0.023,-0.012 0.023,-0.017C0.024,-0.026 0.025,-0.031 0.029,-0.033C0.032,-0.034 0.037,-0.035 0.046,-0.035C0.063,-0.035 0.076,-0.038 0.083,-0.044C0.09,-0.05 0.095,-0.057 0.096,-0.065C0.097,-0.073 0.098,-0.086 0.098,-0.103L0.098,-0.591C0.098,-0.608 0.098,-0.621 0.097,-0.629C0.096,-0.637 0.091,-0.644 0.084,-0.65C0.077,-0.656 0.064,-0.659 0.047,-0.659C0.039,-0.659 0.033,-0.66 0.029,-0.663C0.025,-0.665 0.023,-0.67 0.023,-0.679C0.023,-0.683 0.024,-0.687 0.027,-0.691C0.03,-0.694 0.034,-0.696 0.039,-0.697C0.072,-0.702 0.098,-0.707 0.115,-0.713C0.132,-0.718 0.141,-0.721 0.144,-0.722C0.157,-0.727 0.165,-0.729 0.17,-0.729C0.183,-0.729 0.189,-0.723 0.189,-0.71L0.189,-0.388L0.191,-0.388C0.21,-0.406 0.226,-0.42 0.238,-0.43C0.25,-0.439 0.266,-0.448 0.284,-0.455C0.304,-0.462 0.326,-0.465 0.352,-0.465C0.397,-0.465 0.433,-0.451 0.46,-0.424C0.487,-0.397 0.5,-0.361 0.5,-0.316L0.5,-0.103C0.5,-0.086 0.5,-0.073 0.501,-0.065C0.502,-0.057 0.507,-0.05 0.514,-0.044C0.521,-0.038 0.534,-0.035 0.551,-0.035L0.557,-0.035C0.563,-0.035 0.567,-0.034 0.57,-0.032C0.572,-0.03 0.573,-0.025 0.574,-0.017C0.574,-0.012 0.573,-0.007 0.57,-0.003C0.567,0.001 0.564,0.003 0.559,0.003C0.52,0.001 0.485,-0 0.454,-0C0.423,-0 0.388,0.001 0.35,0.003C0.345,0.003 0.341,0.001 0.338,-0.003C0.335,-0.007 0.334,-0.012 0.334,-0.017C0.335,-0.026 0.337,-0.031 0.34,-0.033C0.343,-0.034 0.348,-0.035 0.357,-0.035C0.374,-0.035 0.387,-0.038 0.394,-0.044C0.401,-0.05 0.406,-0.057 0.406,-0.065C0.407,-0.072 0.408,-0.085 0.408,-0.103L0.408,-0.315C0.408,-0.346 0.399,-0.369 0.38,-0.386C0.361,-0.402 0.338,-0.41 0.313,-0.41C0.282,-0.41 0.256,-0.402 0.234,-0.387C0.211,-0.372 0.196,-0.356 0.189,-0.341L0.189,-0.103C0.189,-0.086 0.19,-0.073 0.191,-0.065C0.192,-0.057 0.196,-0.05 0.203,-0.044C0.21,-0.038 0.223,-0.035 0.24,-0.035L0.246,-0.035C0.252,-0.035 0.256,-0.034 0.259,-0.032C0.261,-0.03 0.262,-0.025 0.263,-0.017C0.263,-0.012 0.262,-0.007 0.259,-0.003C0.256,0.001 0.253,0.003 0.248,0.003C0.209,0.001 0.174,-0 0.143,-0C0.113,-0 0.078,0.001 0.039,0.003Z" style="fill-opacity:0.5;fill-rule:nonzero;"/></g><g transform="matrix(50,0,0,50,2092.42,2396.03)"><path d="M0.049,0.003C0.044,0.003 0.041,0.001 0.038,-0.003C0.035,-0.007 0.033,-0.012 0.033,-0.017C0.034,-0.026 0.036,-0.031 0.039,-0.033C0.042,-0.034 0.048,-0.035 0.057,-0.035C0.074,-0.035 0.087,-0.038 0.094,-0.044C0.101,-0.05 0.106,-0.057 0.107,-0.065C0.108,-0.073 0.108,-0.086 0.108,-0.103L0.108,-0.332C0.108,-0.349 0.108,-0.362 0.107,-0.37C0.106,-0.378 0.101,-0.385 0.094,-0.391C0.087,-0.397 0.074,-0.4 0.057,-0.4C0.049,-0.4 0.043,-0.401 0.039,-0.404C0.035,-0.406 0.033,-0.411 0.033,-0.42C0.033,-0.424 0.034,-0.428 0.037,-0.432C0.04,-0.435 0.044,-0.437 0.049,-0.438C0.092,-0.445 0.128,-0.453 0.156,-0.464C0.167,-0.467 0.175,-0.469 0.179,-0.47L0.182,-0.47C0.193,-0.47 0.198,-0.464 0.198,-0.451L0.198,-0.388L0.201,-0.388C0.22,-0.406 0.236,-0.42 0.248,-0.43C0.26,-0.439 0.276,-0.448 0.295,-0.455C0.314,-0.462 0.336,-0.465 0.362,-0.465C0.407,-0.465 0.443,-0.451 0.47,-0.424C0.497,-0.397 0.51,-0.361 0.51,-0.316L0.51,-0.103C0.51,-0.086 0.511,-0.073 0.512,-0.065C0.513,-0.057 0.518,-0.05 0.525,-0.044C0.532,-0.038 0.545,-0.035 0.562,-0.035L0.568,-0.035C0.573,-0.035 0.577,-0.034 0.58,-0.032C0.583,-0.03 0.584,-0.025 0.585,-0.017C0.585,-0.012 0.584,-0.007 0.581,-0.003C0.578,0.001 0.574,0.003 0.569,0.003C0.53,0.001 0.495,-0 0.464,-0C0.434,-0 0.399,0.001 0.36,0.003C0.355,0.003 0.352,0.001 0.348,-0.003C0.345,-0.007 0.344,-0.012 0.344,-0.017C0.345,-0.026 0.346,-0.031 0.349,-0.033C0.353,-0.034 0.358,-0.035 0.367,-0.035C0.384,-0.035 0.397,-0.038 0.404,-0.044C0.411,-0.05 0.416,-0.057 0.417,-0.065C0.418,-0.073 0.419,-0.086 0.419,-0.103L0.419,-0.315C0.419,-0.346 0.409,-0.369 0.39,-0.386C0.371,-0.402 0.348,-0.41 0.323,-0.41C0.292,-0.41 0.266,-0.403 0.244,-0.388C0.222,-0.373 0.207,-0.357 0.199,-0.341L0.199,-0.103C0.199,-0.086 0.2,-0.073 0.201,-0.065C0.202,-0.057 0.207,-0.05 0.214,-0.044C0.221,-0.038 0.234,-0.035 0.251,-0.035L0.257,-0.035C0.262,-0.035 0.266,-0.034 0.269,-0.032C0.272,-0.03 0.273,-0.025 0.274,-0.017C0.274,-0.012 0.273,-0.007 0.27,-0.003C0.267,0.001 0.263,0.003 0.258,0.003C0.219,0.001 0.184,-0 0.153,-0C0.123,-0 0.088,0.001 0.049,0.003Z" style="fill-opacity:0.5;fill-rule:nonzero;"/></g><g transform="matrix(50,0,0,50,2133.18,2396.03)"><path d="M0.06,0.003C0.055,0.003 0.05,0.001 0.047,-0.004C0.044,-0.008 0.042,-0.013 0.042,-0.019C0.043,-0.029 0.045,-0.035 0.049,-0.037C0.052,-0.039 0.059,-0.04 0.068,-0.04C0.087,-0.04 0.102,-0.043 0.111,-0.051C0.12,-0.058 0.126,-0.066 0.129,-0.077C0.131,-0.087 0.132,-0.1 0.133,-0.117L0.133,-0.514C0.132,-0.531 0.131,-0.544 0.129,-0.555C0.126,-0.565 0.12,-0.574 0.111,-0.581C0.102,-0.588 0.087,-0.591 0.068,-0.591L0.062,-0.591C0.055,-0.591 0.051,-0.592 0.048,-0.595C0.045,-0.597 0.043,-0.603 0.042,-0.612C0.042,-0.618 0.044,-0.623 0.047,-0.627C0.05,-0.632 0.055,-0.634 0.06,-0.634C0.103,-0.632 0.143,-0.631 0.18,-0.631L0.33,-0.631C0.388,-0.631 0.444,-0.619 0.499,-0.595C0.553,-0.571 0.58,-0.523 0.58,-0.451C0.58,-0.411 0.568,-0.375 0.544,-0.344C0.52,-0.313 0.489,-0.288 0.451,-0.271C0.412,-0.254 0.372,-0.245 0.331,-0.245C0.293,-0.245 0.26,-0.25 0.231,-0.261L0.231,-0.117C0.232,-0.1 0.233,-0.087 0.235,-0.077C0.238,-0.066 0.244,-0.058 0.253,-0.051C0.262,-0.043 0.277,-0.04 0.296,-0.04L0.302,-0.04C0.309,-0.04 0.314,-0.039 0.317,-0.037C0.32,-0.034 0.321,-0.028 0.322,-0.019C0.322,-0.013 0.321,-0.008 0.318,-0.004C0.315,0.001 0.31,0.003 0.304,0.003C0.261,0.001 0.22,-0 0.179,-0C0.143,-0 0.103,0.001 0.06,0.003ZM0.302,-0.29C0.326,-0.29 0.351,-0.295 0.377,-0.305C0.402,-0.314 0.424,-0.331 0.442,-0.355C0.46,-0.378 0.469,-0.409 0.469,-0.448C0.469,-0.507 0.45,-0.546 0.413,-0.565C0.376,-0.584 0.336,-0.594 0.294,-0.594C0.277,-0.594 0.264,-0.592 0.255,-0.589C0.246,-0.585 0.24,-0.578 0.236,-0.567C0.233,-0.556 0.231,-0.54 0.231,-0.517L0.231,-0.301C0.247,-0.294 0.271,-0.29 0.302,-0.29Z" style="fill-opacity:0.5;fill-rule:nonzero;"/></g><g transform="matrix(50,0,0,50,2162.38,2396.03)"><path d="M0.275,0.012C0.225,0.012 0.183,0.001 0.148,-0.02C0.113,-0.041 0.086,-0.07 0.068,-0.107C0.05,-0.144 0.041,-0.184 0.041,-0.229C0.041,-0.268 0.05,-0.306 0.069,-0.343C0.087,-0.379 0.113,-0.408 0.147,-0.431C0.181,-0.454 0.22,-0.465 0.264,-0.465C0.323,-0.465 0.369,-0.45 0.401,-0.42C0.433,-0.389 0.451,-0.348 0.456,-0.297C0.456,-0.275 0.45,-0.26 0.438,-0.252C0.426,-0.244 0.409,-0.24 0.386,-0.24L0.143,-0.24C0.143,-0.178 0.156,-0.129 0.182,-0.093C0.207,-0.056 0.247,-0.038 0.301,-0.038C0.33,-0.038 0.354,-0.044 0.374,-0.057C0.394,-0.069 0.413,-0.09 0.431,-0.119C0.434,-0.122 0.438,-0.124 0.441,-0.124C0.446,-0.124 0.45,-0.123 0.453,-0.12C0.46,-0.116 0.463,-0.11 0.463,-0.102C0.463,-0.098 0.462,-0.095 0.461,-0.093C0.44,-0.06 0.414,-0.034 0.383,-0.016C0.351,0.003 0.315,0.012 0.275,0.012ZM0.306,-0.278C0.34,-0.278 0.358,-0.292 0.36,-0.32C0.36,-0.351 0.352,-0.377 0.335,-0.398C0.318,-0.419 0.295,-0.43 0.264,-0.43C0.23,-0.43 0.202,-0.417 0.18,-0.39C0.158,-0.363 0.146,-0.325 0.143,-0.278L0.306,-0.278Z" style="fill-opacity:0.5;fill-rule:nonzero;"/></g><g transform="matrix(50,0,0,50,2187.48,2396.03)"><path d="M0.049,0.003C0.044,0.003 0.041,0.001 0.038,-0.003C0.035,-0.007 0.033,-0.012 0.033,-0.017C0.034,-0.026 0.036,-0.031 0.039,-0.033C0.042,-0.034 0.048,-0.035 0.057,-0.035C0.074,-0.035 0.087,-0.038 0.094,-0.044C0.101,-0.05 0.106,-0.057 0.107,-0.065C0.108,-0.073 0.108,-0.086 0.108,-0.103L0.108,-0.332C0.108,-0.349 0.108,-0.362 0.107,-0.37C0.106,-0.378 0.101,-0.385 0.094,-0.391C0.087,-0.397 0.074,-0.4 0.057,-0.4C0.049,-0.4 0.043,-0.401 0.039,-0.404C0.035,-0.406 0.033,-0.411 0.033,-0.42C0.033,-0.424 0.034,-0.428 0.037,-0.432C0.04,-0.435 0.044,-0.437 0.049,-0.438C0.092,-0.445 0.128,-0.453 0.156,-0.464C0.167,-0.467 0.175,-0.469 0.179,-0.47L0.182,-0.47C0.193,-0.47 0.198,-0.464 0.198,-0.451L0.198,-0.388L0.201,-0.388C0.22,-0.406 0.236,-0.42 0.248,-0.43C0.26,-0.439 0.276,-0.448 0.295,-0.455C0.314,-0.462 0.336,-0.465 0.362,-0.465C0.407,-0.465 0.443,-0.451 0.47,-0.424C0.497,-0.397 0.51,-0.361 0.51,-0.316L0.51,-0.103C0.51,-0.086 0.511,-0.073 0.512,-0.065C0.513,-0.057 0.518,-0.05 0.525,-0.044C0.532,-0.038 0.545,-0.035 0.562,-0.035L0.568,-0.035C0.573,-0.035 0.577,-0.034 0.58,-0.032C0.583,-0.03 0.584,-0.025 0.585,-0.017C0.585,-0.012 0.584,-0.007 0.581,-0.003C0.578,0.001 0.574,0.003 0.569,0.003C0.53,0.001 0.495,-0 0.464,-0C0.434,-0 0.399,0.001 0.36,0.003C0.355,0.003 0.352,0.001 0.348,-0.003C0.345,-0.007 0.344,-0.012 0.344,-0.017C0.345,-0.026 0.346,-0.031 0.349,-0.033C0.353,-0.034 0.358,-0.035 0.367,-0.035C0.384,-0.035 0.397,-0.038 0.404,-0.044C0.411,-0.05 0.416,-0.057 0.417,-0.065C0.418,-0.073 0.419,-0.086 0.419,-0.103L0.419,-0.315C0.419,-0.346 0.409,-0.369 0.39,-0.386C0.371,-0.402 0.348,-0.41 0.323,-0.41C0.292,-0.41 0.266,-0.403 0.244,-0.388C0.222,-0.373 0.207,-0.357 0.199,-0.341L0.199,-0.103C0.199,-0.086 0.2,-0.073 0.201,-0.065C0.202,-0.057 0.207,-0.05 0.214,-0.044C0.221,-0.038 0.234,-0.035 0.251,-0.035L0.257,-0.035C0.262,-0.035 0.266,-0.034 0.269,-0.032C0.272,-0.03 0.273,-0.025 0.274,-0.017C0.274,-0.012 0.273,-0.007 0.27,-0.003C0.267,0.001 0.263,0.003 0.258,0.003C0.219,0.001 0.184,-0 0.153,-0C0.123,-0 0.088,0.001 0.049,0.003Z" style="fill-opacity:0.5;fill-rule:nonzero;"/></g><g transform="matrix(50,0,0,50,2217.18,2396.03)"><path d="M0.049,0.003C0.044,0.003 0.041,0.001 0.038,-0.003C0.035,-0.007 0.033,-0.012 0.033,-0.017C0.034,-0.026 0.036,-0.031 0.039,-0.033C0.042,-0.034 0.048,-0.035 0.057,-0.035C0.074,-0.035 0.087,-0.038 0.094,-0.044C0.101,-0.05 0.106,-0.057 0.107,-0.065C0.108,-0.073 0.108,-0.086 0.108,-0.103L0.108,-0.332C0.108,-0.349 0.108,-0.362 0.107,-0.37C0.106,-0.378 0.101,-0.385 0.094,-0.391C0.087,-0.397 0.074,-0.4 0.057,-0.4C0.049,-0.4 0.043,-0.401 0.039,-0.404C0.035,-0.406 0.033,-0.411 0.033,-0.42C0.033,-0.424 0.034,-0.428 0.037,-0.432C0.04,-0.435 0.044,-0.437 0.049,-0.438C0.092,-0.445 0.128,-0.453 0.156,-0.464C0.167,-0.467 0.175,-0.469 0.179,-0.47L0.182,-0.47C0.193,-0.47 0.198,-0.464 0.198,-0.451L0.198,-0.388L0.201,-0.388C0.22,-0.406 0.236,-0.42 0.248,-0.43C0.26,-0.439 0.276,-0.448 0.295,-0.455C0.314,-0.462 0.336,-0.465 0.362,-0.465C0.407,-0.465 0.443,-0.451 0.47,-0.424C0.497,-0.397 0.51,-0.361 0.51,-0.316L0.51,-0.103C0.51,-0.086 0.511,-0.073 0.512,-0.065C0.513,-0.057 0.518,-0.05 0.525,-0.044C0.532,-0.038 0.545,-0.035 0.562,-0.035L0.568,-0.035C0.573,-0.035 0.577,-0.034 0.58,-0.032C0.583,-0.03 0.584,-0.025 0.585,-0.017C0.585,-0.012 0.584,-0.007 0.581,-0.003C0.578,0.001 0.574,0.003 0.569,0.003C0.53,0.001 0.495,-0 0.464,-0C0.434,-0 0.399,0.001 0.36,0.003C0.355,0.003 0.352,0.001 0.348,-0.003C0.345,-0.007 0.344,-0.012 0.344,-0.017C0.345,-0.026 0.346,-0.031 0.349,-0.033C0.353,-0.034 0.358,-0.035 0.367,-0.035C0.384,-0.035 0.397,-0.038 0.404,-0.044C0.411,-0.05 0.416,-0.057 0.417,-0.065C0.418,-0.073 0.419,-0.086 0.419,-0.103L0.419,-0.315C0.419,-0.346 0.409,-0.369 0.39,-0.386C0.371,-0.402 0.348,-0.41 0.323,-0.41C0.292,-0.41 0.266,-0.403 0.244,-0.388C0.222,-0.373 0.207,-0.357 0.199,-0.341L0.199,-0.103C0.199,-0.086 0.2,-0.073 0.201,-0.065C0.202,-0.057 0.207,-0.05 0.214,-0.044C0.221,-0.038 0.234,-0.035 0.251,-0.035L0.257,-0.035C0.262,-0.035 0.266,-0.034 0.269,-0.032C0.272,-0.03 0.273,-0.025 0.274,-0.017C0.274,-0.012 0.273,-0.007 0.27,-0.003C0.267,0.001 0.263,0.003 0.258,0.003C0.219,0.001 0.184,-0 0.153,-0C0.123,-0 0.088,0.001 0.049,0.003Z" style="fill-opacity:0.5;fill-rule:nonzero;"/></g><g transform="matrix(50,0,0,50,2246.13,2396.03)"><path d="M0.096,0.218C0.067,0.218 0.042,0.209 0.02,0.19C-0.003,0.172 -0.014,0.15 -0.014,0.125C-0.014,0.095 -0.006,0.076 0.011,0.067C0.028,0.059 0.041,0.055 0.05,0.055C0.061,0.055 0.071,0.057 0.078,0.062C0.085,0.067 0.089,0.071 0.089,0.075C0.089,0.076 0.086,0.08 0.081,0.085C0.076,0.09 0.073,0.1 0.073,0.113C0.073,0.126 0.077,0.138 0.086,0.148C0.094,0.158 0.106,0.163 0.121,0.163C0.163,0.163 0.204,0.12 0.244,0.034C0.247,0.025 0.248,0.018 0.248,0.013C0.248,0.006 0.246,-0.002 0.243,-0.012C0.23,-0.042 0.207,-0.098 0.176,-0.179C0.149,-0.252 0.126,-0.307 0.109,-0.345C0.098,-0.371 0.087,-0.389 0.077,-0.399C0.067,-0.408 0.052,-0.414 0.033,-0.417C0.031,-0.418 0.027,-0.418 0.022,-0.419C0.017,-0.42 0.013,-0.421 0.012,-0.424C0.011,-0.427 0.01,-0.431 0.01,-0.438C0.01,-0.446 0.012,-0.451 0.017,-0.453C0.021,-0.455 0.026,-0.456 0.033,-0.457C0.039,-0.457 0.043,-0.457 0.045,-0.457C0.086,-0.459 0.118,-0.453 0.141,-0.44C0.164,-0.426 0.184,-0.402 0.199,-0.368C0.214,-0.334 0.227,-0.302 0.238,-0.271C0.265,-0.199 0.286,-0.146 0.303,-0.113L0.306,-0.113L0.404,-0.375C0.407,-0.386 0.409,-0.394 0.409,-0.399C0.409,-0.406 0.406,-0.411 0.399,-0.414C0.392,-0.417 0.381,-0.418 0.366,-0.418L0.36,-0.418C0.355,-0.418 0.351,-0.419 0.348,-0.421C0.346,-0.423 0.345,-0.428 0.344,-0.436C0.344,-0.441 0.345,-0.445 0.347,-0.45C0.35,-0.454 0.353,-0.456 0.358,-0.456C0.396,-0.454 0.428,-0.453 0.455,-0.453C0.466,-0.453 0.486,-0.454 0.517,-0.455L0.538,-0.456C0.543,-0.456 0.546,-0.454 0.549,-0.45C0.552,-0.445 0.553,-0.441 0.553,-0.436C0.552,-0.428 0.551,-0.423 0.548,-0.421C0.545,-0.419 0.541,-0.418 0.536,-0.418C0.511,-0.418 0.492,-0.414 0.479,-0.406C0.466,-0.398 0.454,-0.382 0.445,-0.359C0.43,-0.321 0.405,-0.26 0.371,-0.176C0.337,-0.092 0.312,-0.03 0.295,0.01C0.271,0.067 0.243,0.116 0.211,0.157C0.179,0.198 0.141,0.218 0.096,0.218Z" style="fill-opacity:0.5;fill-rule:nonzero;"/></g></g><g transform="matrix(1,0,0,1,-847.286,-2359.58)"><g transform="matrix(50,0,0,50,1918.17,2527.81)"><path d="M0.073,-0L0.073,-0.716L0.168,-0.716L0.168,-0.084L0.521,-0.084L0.521,-0L0.073,-0Z" style="fill-opacity:0.5;fill-rule:nonzero;"/></g><g transform="matrix(50,0,0,50,1945.98,2527.81)"><path d="M-0.001,-0L0.273,-0.716L0.375,-0.716L0.668,-0L0.561,-0L0.477,-0.217L0.178,-0.217L0.099,-0L-0.001,-0ZM0.205,-0.294L0.448,-0.294L0.373,-0.492C0.35,-0.552 0.333,-0.602 0.322,-0.641C0.313,-0.595 0.3,-0.549 0.284,-0.504L0.205,-0.294Z" style="fill-opacity:0.5;fill-rule:nonzero;"/></g><g transform="matrix(50,0,0,50,1979.33,2527.81)"><path d="M0.079,-0L0.079,-0.716L0.396,-0.716C0.46,-0.716 0.508,-0.709 0.542,-0.697C0.575,-0.684 0.601,-0.661 0.621,-0.628C0.641,-0.596 0.651,-0.56 0.651,-0.521C0.651,-0.47 0.634,-0.427 0.602,-0.392C0.569,-0.357 0.518,-0.335 0.449,-0.326C0.474,-0.314 0.493,-0.302 0.506,-0.29C0.534,-0.265 0.56,-0.233 0.585,-0.195L0.709,-0L0.59,-0L0.496,-0.149C0.468,-0.192 0.445,-0.225 0.427,-0.248C0.409,-0.27 0.393,-0.286 0.379,-0.295C0.365,-0.305 0.351,-0.311 0.336,-0.314C0.325,-0.317 0.308,-0.318 0.283,-0.318L0.173,-0.318L0.173,-0L0.079,-0ZM0.173,-0.4L0.377,-0.4C0.42,-0.4 0.454,-0.404 0.479,-0.413C0.503,-0.422 0.521,-0.437 0.534,-0.456C0.547,-0.476 0.553,-0.497 0.553,-0.521C0.553,-0.554 0.541,-0.582 0.516,-0.604C0.492,-0.626 0.453,-0.637 0.4,-0.637L0.173,-0.637L0.173,-0.4Z" style="fill-opacity:0.5;fill-rule:nonzero;"/></g><g transform="matrix(50,0,0,50,2015.43,2527.81)"><path d="M0.412,-0.281L0.412,-0.365L0.715,-0.365L0.715,-0.1C0.669,-0.063 0.621,-0.035 0.571,-0.016C0.522,0.003 0.471,0.012 0.419,0.012C0.349,0.012 0.285,-0.003 0.227,-0.033C0.17,-0.063 0.126,-0.107 0.097,-0.164C0.068,-0.221 0.053,-0.284 0.053,-0.354C0.053,-0.424 0.068,-0.489 0.097,-0.55C0.126,-0.61 0.168,-0.655 0.223,-0.684C0.277,-0.713 0.34,-0.728 0.412,-0.728C0.463,-0.728 0.51,-0.72 0.552,-0.703C0.594,-0.686 0.627,-0.663 0.65,-0.633C0.674,-0.603 0.692,-0.564 0.705,-0.516L0.619,-0.492C0.608,-0.529 0.595,-0.557 0.579,-0.578C0.563,-0.599 0.54,-0.616 0.511,-0.628C0.481,-0.641 0.448,-0.647 0.412,-0.647C0.369,-0.647 0.331,-0.64 0.3,-0.627C0.268,-0.614 0.243,-0.597 0.223,-0.575C0.204,-0.554 0.189,-0.53 0.178,-0.504C0.16,-0.46 0.151,-0.412 0.151,-0.36C0.151,-0.297 0.162,-0.243 0.184,-0.2C0.206,-0.157 0.238,-0.125 0.28,-0.104C0.322,-0.084 0.366,-0.073 0.414,-0.073C0.455,-0.073 0.495,-0.081 0.534,-0.097C0.573,-0.113 0.602,-0.13 0.623,-0.147L0.623,-0.281L0.412,-0.281Z" style="fill-opacity:0.5;fill-rule:nonzero;"/></g><g transform="matrix(50,0,0,50,2054.33,2527.81)"><path d="M0.079,-0L0.079,-0.716L0.597,-0.716L0.597,-0.631L0.174,-0.631L0.174,-0.412L0.57,-0.412L0.57,-0.328L0.174,-0.328L0.174,-0.084L0.613,-0.084L0.613,-0L0.079,-0Z" style="fill-opacity:0.5;fill-rule:nonzero;"/></g><g transform="matrix(50,0,0,50,2101.15,2527.81)"><rect x="0.093" y="-0.716" width="0.095" height="0.716" style="fill-opacity:0.5;fill-rule:nonzero;"/></g><g transform="matrix(50,0,0,50,2115.04,2527.81)"><path d="M0.076,-0L0.076,-0.716L0.173,-0.716L0.549,-0.154L0.549,-0.716L0.64,-0.716L0.64,-0L0.543,-0L0.167,-0.563L0.167,-0L0.076,-0Z" style="fill-opacity:0.5;fill-rule:nonzero;"/></g><g transform="matrix(50,0,0,50,2151.15,2527.81)"><path d="M0.076,-0L0.076,-0.716L0.173,-0.716L0.549,-0.154L0.549,-0.716L0.64,-0.716L0.64,-0L0.543,-0L0.167,-0.563L0.167,-0L0.076,-0Z" style="fill-opacity:0.5;fill-rule:nonzero;"/></g><g transform="matrix(50,0,0,50,2187.26,2527.81)"><path d="M0.079,-0L0.079,-0.716L0.597,-0.716L0.597,-0.631L0.174,-0.631L0.174,-0.412L0.57,-0.412L0.57,-0.328L0.174,-0.328L0.174,-0.084L0.613,-0.084L0.613,-0L0.079,-0Z" style="fill-opacity:0.5;fill-rule:nonzero;"/></g><g transform="matrix(50,0,0,50,2220.61,2527.81)"><path d="M0.079,-0L0.079,-0.716L0.396,-0.716C0.46,-0.716 0.508,-0.709 0.542,-0.697C0.575,-0.684 0.601,-0.661 0.621,-0.628C0.641,-0.596 0.651,-0.56 0.651,-0.521C0.651,-0.47 0.634,-0.427 0.602,-0.392C0.569,-0.357 0.518,-0.335 0.449,-0.326C0.474,-0.314 0.493,-0.302 0.506,-0.29C0.534,-0.265 0.56,-0.233 0.585,-0.195L0.709,-0L0.59,-0L0.496,-0.149C0.468,-0.192 0.445,-0.225 0.427,-0.248C0.409,-0.27 0.393,-0.286 0.379,-0.295C0.365,-0.305 0.351,-0.311 0.336,-0.314C0.325,-0.317 0.308,-0.318 0.283,-0.318L0.173,-0.318L0.173,-0L0.079,-0ZM0.173,-0.4L0.377,-0.4C0.42,-0.4 0.454,-0.404 0.479,-0.413C0.503,-0.422 0.521,-0.437 0.534,-0.456C0.547,-0.476 0.553,-0.497 0.553,-0.521C0.553,-0.554 0.541,-0.582 0.516,-0.604C0.492,-0.626 0.453,-0.637 0.4,-0.637L0.173,-0.637L0.173,-0.4Z" style="fill-opacity:0.5;fill-rule:nonzero;"/></g></g></g></svg>